<svg xmlns="http://www.w3.org/2000/svg" xmlns:xlink="http://www.w3.org/1999/xlink" viewBox="0 0 50 75" version="1.1" x="0px" y="0px"><title>21 -POS- (Outline)</title><desc></desc><g stroke="none" stroke-width="1" fill="none" fill-rule="evenodd"><g transform="translate(-124.000000, -585.000000)" fill="#000000"><g transform="translate(124.000000, 585.000000)"><path d="M41.0003,40 C40.4483,40 40.0003,39.552 40.0003,39 L40.0003,33 C40.0003,32.448 40.4483,32 41.0003,32 C41.5523,32 42.0003,32.448 42.0003,33 L42.0003,39 C42.0003,39.552 41.5523,40 41.0003,40"/><path d="M41.0003,30 C40.4483,30 40.0003,29.552 40.0003,29 L40.0003,27 C40.0003,26.448 40.4483,26 41.0003,26 C41.5523,26 42.0003,26.448 42.0003,27 L42.0003,29 C42.0003,29.552 41.5523,30 41.0003,30"/><path d="M44.0003,11.9985 L42.0003,11.9995 L42.0003,17.9995 L44.0003,17.9995 L44.0003,11.9985 Z M44.0003,19.9995 L42.0003,19.9995 C40.8973,19.9995 40.0003,19.1025 40.0003,17.9995 L40.0003,11.9995 C40.0003,10.8965 40.8973,9.9995 42.0003,9.9995 L44.0003,9.9995 C45.1033,9.9995 46.0003,10.8965 46.0003,11.9995 L46.0003,17.9995 C46.0003,19.1025 45.1033,19.9995 44.0003,19.9995 L44.0003,19.9995 Z"/><path d="M5.0003,2 C3.3463,2 2.0003,3.346 2.0003,5 L2.0003,55 C2.0003,56.654 3.3463,58 5.0003,58 L31.0003,58 C32.6543,58 34.0003,56.654 34.0003,55 L34.0003,5 C34.0003,3.346 32.6543,2 31.0003,2 L5.0003,2 Z M31.0003,60 L5.0003,60 C2.2433,60 0.0003,57.757 0.0003,55 L0.0003,5 C0.0003,2.243 2.2433,0 5.0003,0 L31.0003,0 C33.7573,0 36.0003,2.243 36.0003,5 L36.0003,55 C36.0003,57.757 33.7573,60 31.0003,60 L31.0003,60 Z"/><path d="M6,18 L30,18 L30,6 L6,6 L6,18 Z M31,20 L5,20 C4.448,20 4,19.552 4,19 L4,5 C4,4.448 4.448,4 5,4 L31,4 C31.553,4 32,4.448 32,5 L32,19 C32,19.552 31.553,20 31,20 L31,20 Z"/><path d="M9.0003,24 L9.0003,26 L11.0013,26 L11.0003,24 L9.0003,24 Z M11.0003,28 L9.0003,28 C7.8973,28 7.0003,27.103 7.0003,26 L7.0003,24 C7.0003,22.897 7.8973,22 9.0003,22 L11.0003,22 C12.1033,22 13.0003,22.897 13.0003,24 L13.0003,26 C13.0003,27.103 12.1033,28 11.0003,28 L11.0003,28 Z"/><path d="M17.0003,24 L17.0003,26 L19.0013,26 L19.0003,24 L17.0003,24 Z M19.0003,28 L17.0003,28 C15.8973,28 15.0003,27.103 15.0003,26 L15.0003,24 C15.0003,22.897 15.8973,22 17.0003,22 L19.0003,22 C20.1033,22 21.0003,22.897 21.0003,24 L21.0003,26 C21.0003,27.103 20.1033,28 19.0003,28 L19.0003,28 Z"/><path d="M25.0003,24 L25.0003,26 L27.0013,26 L27.0003,24 L25.0003,24 Z M27.0003,28 L25.0003,28 C23.8973,28 23.0003,27.103 23.0003,26 L23.0003,24 C23.0003,22.897 23.8973,22 25.0003,22 L27.0003,22 C28.1033,22 29.0003,22.897 29.0003,24 L29.0003,26 C29.0003,27.103 28.1033,28 27.0003,28 L27.0003,28 Z"/><path d="M9.0003,32 L9.0003,34 L11.0013,34 L11.0003,32 L9.0003,32 Z M11.0003,36 L9.0003,36 C7.8973,36 7.0003,35.103 7.0003,34 L7.0003,32 C7.0003,30.897 7.8973,30 9.0003,30 L11.0003,30 C12.1033,30 13.0003,30.897 13.0003,32 L13.0003,34 C13.0003,35.103 12.1033,36 11.0003,36 L11.0003,36 Z"/><path d="M17.0003,32 L17.0003,34 L19.0013,34 L19.0003,32 L17.0003,32 Z M19.0003,36 L17.0003,36 C15.8973,36 15.0003,35.103 15.0003,34 L15.0003,32 C15.0003,30.897 15.8973,30 17.0003,30 L19.0003,30 C20.1033,30 21.0003,30.897 21.0003,32 L21.0003,34 C21.0003,35.103 20.1033,36 19.0003,36 L19.0003,36 Z"/><path d="M25.0003,32 L25.0003,34 L27.0013,34 L27.0003,32 L25.0003,32 Z M27.0003,36 L25.0003,36 C23.8973,36 23.0003,35.103 23.0003,34 L23.0003,32 C23.0003,30.897 23.8973,30 25.0003,30 L27.0003,30 C28.1033,30 29.0003,30.897 29.0003,32 L29.0003,34 C29.0003,35.103 28.1033,36 27.0003,36 L27.0003,36 Z"/><path d="M9.0003,40 L9.0003,42 L11.0013,42 L11.0003,40 L9.0003,40 Z M11.0003,44 L9.0003,44 C7.8973,44 7.0003,43.103 7.0003,42 L7.0003,40 C7.0003,38.897 7.8973,38 9.0003,38 L11.0003,38 C12.1033,38 13.0003,38.897 13.0003,40 L13.0003,42 C13.0003,43.103 12.1033,44 11.0003,44 L11.0003,44 Z"/><path d="M17.0003,40 L17.0003,42 L19.0013,42 L19.0003,40 L17.0003,40 Z M19.0003,44 L17.0003,44 C15.8973,44 15.0003,43.103 15.0003,42 L15.0003,40 C15.0003,38.897 15.8973,38 17.0003,38 L19.0003,38 C20.1033,38 21.0003,38.897 21.0003,40 L21.0003,42 C21.0003,43.103 20.1033,44 19.0003,44 L19.0003,44 Z"/><path d="M25.0003,40 L25.0003,42 L27.0013,42 L27.0003,40 L25.0003,40 Z M27.0003,44 L25.0003,44 C23.8973,44 23.0003,43.103 23.0003,42 L23.0003,40 C23.0003,38.897 23.8973,38 25.0003,38 L27.0003,38 C28.1033,38 29.0003,38.897 29.0003,40 L29.0003,42 C29.0003,43.103 28.1033,44 27.0003,44 L27.0003,44 Z"/><path d="M11.0003,48 C9.9163,48 9.0003,49.374 9.0003,51 C9.0003,52.626 9.9163,54 11.0003,54 C12.0843,54 13.0003,52.626 13.0003,51 C13.0003,49.374 12.0843,48 11.0003,48 M11.0003,56 C8.7943,56 7.0003,53.757 7.0003,51 C7.0003,48.243 8.7943,46 11.0003,46 C13.2063,46 15.0003,48.243 15.0003,51 C15.0003,53.757 13.2063,56 11.0003,56"/><path d="M25.0003,48 C23.9163,48 23.0003,49.374 23.0003,51 C23.0003,52.626 23.9163,54 25.0003,54 C26.0843,54 27.0003,52.626 27.0003,51 C27.0003,49.374 26.0843,48 25.0003,48 M25.0003,56 C22.7943,56 21.0003,53.757 21.0003,51 C21.0003,48.243 22.7943,46 25.0003,46 C27.2063,46 29.0003,48.243 29.0003,51 C29.0003,53.757 27.2063,56 25.0003,56"/><path d="M47.0003,46 L35.0003,46 C34.4483,46 34.0003,45.552 34.0003,45 C34.0003,44.448 34.4483,44 35.0003,44 L47.0003,44 C47.5513,44 48.0003,43.551 48.0003,43 L48.0003,9 C48.0003,8.449 47.5513,8 47.0003,8 L35.0003,8 C34.4483,8 34.0003,7.552 34.0003,7 C34.0003,6.448 34.4483,6 35.0003,6 L47.0003,6 C48.6543,6 50.0003,7.346 50.0003,9 L50.0003,43 C50.0003,44.654 48.6543,46 47.0003,46"/><path d="M17.0003,16 C16.7353,16 16.4813,15.895 16.2933,15.707 L13.2933,12.707 C12.9023,12.316 12.9023,11.684 13.2933,11.293 C13.6843,10.902 14.3163,10.902 14.7073,11.293 L16.9333,13.519 L21.2323,8.36 C21.5853,7.936 22.2163,7.879 22.6403,8.232 C23.0643,8.585 23.1223,9.216 22.7683,9.64 L17.7683,15.64 C17.5883,15.856 17.3263,15.986 17.0453,15.999 C17.0303,16 17.0153,16 17.0003,16"/></g></g></g><text x="0" y="75" fill="#000000" font-size="5px" font-weight="bold" font-family="'Helvetica Neue', Helvetica, Arial-Unicode, Arial, Sans-serif">Created by Smashicons</text><text x="0" y="80" fill="#000000" font-size="5px" font-weight="bold" font-family="'Helvetica Neue', Helvetica, Arial-Unicode, Arial, Sans-serif">from the Noun Project</text></svg>
